<svg width="200" height="255"><defs id="SvgjsDefs4258"></defs><g id="SvgjsG4261" featurekey="root" fill="#ffffff"></g><g id="SvgjsG4262" featurekey="symbol1" fill="#000000" transform="matrix(1.4189427646606692,0,0,1.4189427646606692,29.052148625680665,-6.152535778853128)"><g id="SvgjsG4263"><g xmlns="http://www.w3.org/2000/svg"><g><path d="M53.097,4.336c-17.742,0-32.133,14.191-32.133,31.698c0,0.926,0.041,1.839,0.122,2.746    c1.418-0.244,2.923-0.375,4.436-0.401c0.005,0,0.005,0,0.005,0c0.171-0.005,0.348-0.005,0.52-0.005    c3.211,0,6.436,0.497,8.861,1.468c0-0.33,0-2.326,0-4.277v-3.74c0-4.128,7.073-6.287,14.065-6.287    c6.987,0,14.061,2.159,14.061,6.287v3.659c0,3.152,0,7.109,0,7.109v8.97c0.14,0,0.284,0.005,0.429,0.01    c5.962,0.181,11.744,1.838,13.36,4.878c0.118,0.212,0.213,0.434,0.285,0.664c5.054-5.602,8.13-12.986,8.13-21.08    C85.237,18.527,70.852,4.336,53.097,4.336z"></path></g><g><path d="M34.885,42.918v-0.005c-0.022-0.009-0.041-0.022-0.067-0.036c-2.178-1.156-5.483-1.752-8.771-1.752    c-0.149,0-0.299,0-0.452,0c-0.005,0-0.005,0-0.005,0c-5.456,0.095-10.826,1.824-10.826,5.045c0,3.315,5.673,5.045,11.283,5.045    c3.288,0,6.594-0.592,8.771-1.752c0.234-0.122,0.451-0.253,0.654-0.389c0.678-0.447,1.197-0.967,1.509-1.55    c0.226-0.415,0.348-0.871,0.348-1.354C37.328,44.814,36.385,43.73,34.885,42.918z M26.046,48.717    c-5.705,0-8.781-1.807-8.781-2.547c0-0.736,3.076-2.548,8.781-2.548c4.015,0,6.729,0.899,7.985,1.685    c0.528,0.33,0.799,0.646,0.799,0.863c0,0.1-0.054,0.212-0.157,0.339C33.973,47.357,31,48.717,26.046,48.717z"></path></g><path d="M37.328,49.155v6.017c0,0.198-0.022,0.389-0.072,0.582c-0.637,2.529-5.415,4.494-11.21,4.494   c-6.233,0-11.283-2.271-11.283-5.076v-6.017c0,2.805,5.05,5.072,11.283,5.072c3.541,0,6.702-0.731,8.771-1.879   c1.062-0.592,1.838-1.287,2.227-2.051C37.233,49.933,37.328,49.549,37.328,49.155z"></path><path d="M37.328,64.282c0,2.8-5.05,5.072-11.282,5.072c-6.233,0-11.283-2.272-11.283-5.072v-6.025c0,2.81,5.05,5.076,11.283,5.076   c6.232,0,11.282-2.267,11.282-5.076V64.282z"></path><path d="M37.328,73.563c0,2.806-5.05,5.077-11.282,5.077c-6.233,0-11.283-2.271-11.283-5.077v-6.016c0,2.8,5.05,5.072,11.283,5.072   c6.232,0,11.282-2.272,11.282-5.072V73.563z"></path><g><path d="M48.968,38.889c-5.763,0-11.599-1.784-11.599-5.189s5.836-5.186,11.599-5.186c5.764,0,11.604,1.78,11.604,5.186    S54.731,38.889,48.968,38.889z M48.968,31.079c-5.862,0-9.028,1.861-9.028,2.62s3.166,2.615,9.028,2.615    c5.863,0,9.029-1.856,9.029-2.615S54.831,31.079,48.968,31.079z"></path></g><path d="M60.571,36.717v6.188c0,2.877-5.198,5.217-11.604,5.217c-4.598,0-8.776-1.645-8.776-1.645s0.091-1.711,0.091-1.905   c0-1.59-1.129-2.864-2.913-3.812v-4.042c0,2.881,5.194,5.217,11.599,5.217C55.373,41.934,60.571,39.598,60.571,36.717z"></path><path d="M60.566,46.079v5.524c-6.313,0.316-12.244,2.304-13.008,5.836c-2.963-0.186-7.276-2.209-7.276-2.435V49.53   c2.123,1.079,5.226,1.762,8.686,1.762C55.373,51.292,60.566,48.952,60.566,46.079z"></path><g><path d="M74.253,58.338c-1.355-2.538-6.188-3.925-11.175-4.074c-0.303-0.018-0.605-0.018-0.903-0.018H61.94    c-5.764,0.045-11.522,1.743-12.164,4.964c-0.041,0.198-0.063,0.397-0.063,0.609c0,3.654,6.27,5.569,12.462,5.569    s12.453-1.915,12.453-5.569C74.628,59.286,74.496,58.794,74.253,58.338z M62.175,62.629c-6.301,0-9.702-1.996-9.702-2.81    c0-0.176,0.154-0.402,0.461-0.655c0.948-0.785,3.374-1.797,7.127-2.082c0.66-0.05,1.364-0.081,2.114-0.081    c0.308,0,0.609,0.009,0.903,0.019c0.393,0.009,0.772,0.035,1.143,0.059c4.986,0.365,7.651,2.019,7.651,2.741    C71.872,60.633,68.471,62.629,62.175,62.629z"></path></g><path d="M74.632,69.761c0,3.09-5.578,5.601-12.462,5.601c-6.879,0-12.452-2.511-12.452-5.601v-6.653   c0,3.099,5.573,5.605,12.452,5.605c6.884,0,12.462-2.507,12.462-5.605V69.761z"></path><path d="M74.632,79.811c0,3.094-5.578,5.605-12.462,5.605c-6.879,0-12.452-2.512-12.452-5.605v-6.645   c0,3.09,5.573,5.602,12.452,5.602c6.884,0,12.462-2.512,12.462-5.602V79.811z"></path><path d="M74.632,90.063c0,3.09-5.578,5.601-12.462,5.601c-6.879,0-12.452-2.511-12.452-5.601v-6.648   c0,3.089,5.573,5.601,12.452,5.601c6.884,0,12.462-2.512,12.462-5.601V90.063z"></path></g></g></g><g id="SvgjsG4264" featurekey="text1" fill="#000000" transform="matrix(2.0403998294477805,0,0,2.0403998294477805,-1.020198941785434,134.2287330052948)"><path d="M5.06 12.44 c-0.18 0 -0.3 0.12 -0.3 0.3 l0 4.44 l2.14 0 c1 0 1.28 -0.38 1.46 -1.22 l0.68 0 c-0.1 1.16 -0.1 2.18 0 3.34 l-0.68 0 c-0.18 -0.82 -0.44 -1.26 -1.46 -1.26 l-2.14 0 l0 4.46 c0 0.5 0.34 0.66 1.44 0.74 l0 0.76 c-1.9 -0.06 -3.8 -0.06 -5.7 0 l0 -0.76 c1.1 -0.08 1.44 -0.24 1.44 -0.74 l0 -9.44 c0 -0.5 -0.34 -0.64 -1.44 -0.72 l0 -0.76 l8.8 0 c0.26 0 0.3 0.06 0.34 0.36 l0.32 2.38 l-0.86 0 l-0.24 -0.42 c-0.6 -1.04 -1 -1.46 -2.12 -1.46 l-1.68 0 z M16 13.82 c2.28 0 4.86 1.6 4.86 5.08 c0 3.56 -2.58 5.3 -4.84 5.3 c-2.28 0 -4.86 -1.74 -4.86 -5.14 c0 -3.64 2.58 -5.24 4.84 -5.24 z M17.96 19.6 c0 -3.02 -0.86 -4.98 -2.22 -4.98 c-1.12 0 -1.68 1.34 -1.68 3.78 c0 3 0.86 5 2.22 5 c1.14 0 1.68 -1.36 1.68 -3.8 z M25.46 21.8 c0 0.74 0.48 0.9 1.26 0.82 l0 0.74 c-1.9 0.42 -2.84 0.9 -3.34 0.9 c-0.42 0 -0.58 -0.2 -0.58 -0.66 l0 -10.58 c0 -0.74 -0.48 -0.9 -1.24 -0.78 l0 -0.76 c1.98 -0.4 2.82 -1.3 3.36 -1.3 c0.4 0 0.54 0.22 0.54 0.68 l0 10.94 z M31.12 21.8 c0 0.74 0.48 0.9 1.26 0.82 l0 0.74 c-1.9 0.42 -2.84 0.9 -3.34 0.9 c-0.42 0 -0.58 -0.2 -0.58 -0.66 l0 -10.58 c0 -0.74 -0.48 -0.9 -1.24 -0.78 l0 -0.76 c1.98 -0.4 2.82 -1.3 3.36 -1.3 c0.4 0 0.54 0.22 0.54 0.68 l0 10.94 z M38.22 13.82 c2.28 0 4.86 1.6 4.86 5.08 c0 3.56 -2.58 5.3 -4.84 5.3 c-2.28 0 -4.86 -1.74 -4.86 -5.14 c0 -3.64 2.58 -5.24 4.84 -5.24 z M40.18 19.6 c0 -3.02 -0.86 -4.98 -2.22 -4.98 c-1.12 0 -1.68 1.34 -1.68 3.78 c0 3 0.86 5 2.22 5 c1.14 0 1.68 -1.36 1.68 -3.8 z M56.24 13.98 l4.46 0 l0 0.76 l-0.38 0.06 c-0.76 0.12 -1.24 0.42 -1.54 1.32 l-2.58 7.88 l-1.76 0 l-2.22 -6.34 l-2.08 6.34 l-1.76 0 l-2.76 -7.88 c-0.28 -0.82 -0.54 -1.22 -1.22 -1.32 l-0.42 -0.06 l0 -0.76 l5.1 0 l0 0.78 l-0.44 0.04 c-0.56 0.06 -0.7 0.48 -0.42 1.32 l1.84 5.54 l1.66 -5.42 l-0.04 -0.12 c-0.28 -0.82 -0.52 -1.28 -1.04 -1.32 l-0.64 -0.04 l0 -0.78 l5.12 0 l0 0.78 l-0.42 0.04 c-0.56 0.06 -0.7 0.48 -0.42 1.32 l1.84 5.54 l1.7 -5.54 c0.28 -0.88 -0.3 -1.28 -0.94 -1.32 l-0.64 -0.04 l0 -0.78 z  M75.64 11.44 l0.86 0 l-0.74 2.74 l-0.88 0 c0.18 -1.5 -0.14 -1.74 -0.86 -1.74 l-1.5 0 l0 10.06 c0 0.5 0.38 0.66 1.48 0.74 l0 0.76 c-1.9 -0.06 -3.88 -0.06 -5.78 0 l0 -0.76 c1.1 -0.08 1.48 -0.24 1.48 -0.74 l0 -10.06 l-1.46 0 c-0.72 0 -0.96 0.26 -1.66 1.74 l-0.88 0 l0.7 -2.74 l0.86 0 c0.64 0.14 1.04 0.14 2.12 0.14 l4.16 0 c1.06 0 1.46 0 2.1 -0.14 z M87.36000000000001 22.5 c0 0.5 0.54 0.66 1.26 0.74 l0 0.76 c-1.74 -0.06 -3.46 -0.06 -5.2 0 l0 -0.76 c0.7 -0.06 1.24 -0.24 1.24 -0.74 l0 -5.12 c0 -1.42 -0.12 -2.38 -1.12 -2.38 c-1.26 0 -2.3 1.64 -2.5 2.1 l0 5.4 c0 0.5 0.54 0.68 1.26 0.74 l0 0.76 c-1.74 -0.06 -3.46 -0.06 -5.2 0 l0 -0.76 c0.7 -0.08 1.24 -0.24 1.24 -0.74 l0 -9.48 c0 -0.74 -0.48 -0.9 -1.24 -0.78 l0 -0.76 c1.98 -0.4 2.86 -1.3 3.38 -1.3 c0.42 0 0.56 0.22 0.56 0.68 l0 3.88 l-0.18 1.34 c0.46 -0.7 1.62 -2.28 3.5 -2.28 c1.56 0 3 0.66 3 3.48 l0 5.22 z M97.82000000000002 21.740000000000002 c0.26 0 0.32 0.26 0.14 0.58 c-0.64 1.14 -1.72 1.88 -3.42 1.88 c-2.76 0 -5.02 -1.82 -5.02 -5.24 c0 -3.36 2.36 -5.14 4.74 -5.14 c2.5 0 4.26 1.76 4.26 4.08 c0 0.86 -0.34 1.42 -1.24 1.42 l-5 0 c0.04 2.18 0.7 4.08 2.6 4.08 c1.06 0 1.74 -0.44 2.26 -1.36 c0.12 -0.2 0.18 -0.3 0.42 -0.3 l0.26 0 z M95.96000000000002 18.4 c0 -2.36 -0.46 -3.78 -1.72 -3.78 c-1.3 0 -1.94 1.42 -1.96 3.78 l3.68 0 z"></path></g><g id="SvgjsG4265" featurekey="text2" fill="#000000" transform="matrix(3.314550450882112,0,0,3.314550450882112,-0.9943641869641431,155.61750603166527)"><path d="M14.32 22.5 c0 0.5 0.38 0.66 1.48 0.74 l0 0.76 c-1.9 -0.06 -3.88 -0.06 -5.78 0 l0 -0.76 c1.1 -0.08 1.48 -0.24 1.48 -0.74 l0 -8.46 l-3.8 9.96 l-4.38 -9.96 l0 8.46 c0 0.5 0.9 0.64 2.2 0.74 l0 0.76 c-1.76 -0.06 -3.54 -0.06 -5.22 0 l0 -0.76 c1.22 -0.1 2.1 -0.24 2.1 -0.74 l0 -9.14 c0 -0.52 -0.68 -0.94 -1.78 -1.02 l0 -0.76 c1.44 0.06 2.9 0.06 4.34 0 l3.4 7.9 l3.02 -7.9 c1.52 0.06 2.9 0.06 4.42 0 l0 0.76 c-1.1 0.08 -1.48 0.22 -1.48 0.72 l0 9.44 z M21.540000000000003 13.82 c2.28 0 4.86 1.6 4.86 5.08 c0 3.56 -2.58 5.3 -4.84 5.3 c-2.28 0 -4.86 -1.74 -4.86 -5.14 c0 -3.64 2.58 -5.24 4.84 -5.24 z M23.5 19.6 c0 -3.02 -0.86 -4.98 -2.22 -4.98 c-1.12 0 -1.68 1.34 -1.68 3.78 c0 3 0.86 5 2.22 5 c1.14 0 1.68 -1.36 1.68 -3.8 z M37.56 22.5 c0 0.5 0.54 0.66 1.26 0.74 l0 0.76 c-1.74 -0.06 -3.46 -0.06 -5.2 0 l0 -0.76 c0.7 -0.06 1.24 -0.24 1.24 -0.74 l0 -5.12 c0 -1.42 -0.12 -2.38 -1.12 -2.38 c-1.26 0 -2.3 1.64 -2.5 2.1 l0 5.4 c0 0.5 0.54 0.68 1.26 0.74 l0 0.76 c-1.74 -0.06 -3.46 -0.06 -5.2 0 l0 -0.76 c0.7 -0.08 1.24 -0.24 1.24 -0.74 l0 -5.94 c0 -0.74 -0.48 -0.9 -1.24 -0.78 l0 -0.76 c1.98 -0.4 2.86 -1.3 3.38 -1.3 c0.42 0 0.62 0.28 0.56 0.76 l-0.18 1.6 c0.46 -0.7 1.6 -2.28 3.5 -2.28 c1.56 0 3 0.66 3 3.48 l0 5.22 z M48.02 21.740000000000002 c0.26 0 0.32 0.26 0.14 0.58 c-0.64 1.14 -1.72 1.88 -3.42 1.88 c-2.76 0 -5.02 -1.82 -5.02 -5.24 c0 -3.36 2.36 -5.14 4.74 -5.14 c2.5 0 4.26 1.76 4.26 4.08 c0 0.86 -0.34 1.42 -1.24 1.42 l-5 0 c0.04 2.18 0.7 4.08 2.6 4.08 c1.06 0 1.74 -0.44 2.26 -1.36 c0.12 -0.2 0.18 -0.3 0.42 -0.3 l0.26 0 z M46.160000000000004 18.4 c0 -2.36 -0.46 -3.78 -1.72 -3.78 c-1.3 0 -1.94 1.42 -1.96 3.78 l3.68 0 z M60.64000000000001 13.98 l0 0.76 l-0.6 0.06 c-0.58 0.06 -0.86 0.44 -1 0.82 l-4.8 12.36 c-0.1 0.26 -0.2 0.4 -0.72 0.4 c-0.62 0 -0.8 -0.14 -0.66 -0.4 c0.32 -0.62 1.86 -3.44 1.86 -3.74 c0 -0.48 -2.48 -5.76 -3.76 -8.62 c-0.18 -0.42 -0.38 -0.78 -0.74 -0.82 l-0.6 -0.06 l0 -0.76 c1.66 0.06 3.54 0.06 5.12 0 l0 0.76 l-0.6 0.06 c-0.42 0.04 -0.64 0.42 -0.46 0.82 l2.38 5.4 l2.06 -5.4 c0.16 -0.42 -0.18 -0.78 -0.7 -0.82 l-0.66 -0.06 l0 -0.76 c1.24 0.06 2.32 0.06 3.88 0 z"></path></g></svg>